<?xml version="1.0" encoding="UTF-8" standalone="no"?>
<!-- Generator: Adobe Illustrator 22.0.0, SVG Export Plug-In . SVG Version: 6.00 Build 0)  -->

<svg
   xmlns:dc="http://purl.org/dc/elements/1.1/"
   xmlns:cc="http://creativecommons.org/ns#"
   xmlns:rdf="http://www.w3.org/1999/02/22-rdf-syntax-ns#"
   xmlns:svg="http://www.w3.org/2000/svg"
   xmlns="http://www.w3.org/2000/svg"
   xmlns:sodipodi="http://sodipodi.sourceforge.net/DTD/sodipodi-0.dtd"
   xmlns:inkscape="http://www.inkscape.org/namespaces/inkscape"
   version="1.1"
   x="0px"
   y="0px"
   viewBox="0 0 780 187"
   enable-background="new 0 0 780 187"
   xml:space="preserve"
   id="svg2"
   inkscape:version="0.91 r13725"
   sodipodi:docname="header.svg"><metadata
     id="metadata163"><rdf:RDF><cc:Work
         rdf:about=""><dc:format>image/svg+xml</dc:format><dc:type
           rdf:resource="http://purl.org/dc/dcmitype/StillImage" /></cc:Work></rdf:RDF></metadata><defs
     id="defs161" /><sodipodi:namedview
     pagecolor="#ffffff"
     bordercolor="#666666"
     borderopacity="1"
     objecttolerance="10"
     gridtolerance="10"
     guidetolerance="10"
     inkscape:pageopacity="0"
     inkscape:pageshadow="2"
     inkscape:window-width="1920"
     inkscape:window-height="1021"
     id="namedview159"
     showgrid="false"
     inkscape:zoom="0.74615385"
     inkscape:cx="382.39393"
     inkscape:cy="-35.605912"
     inkscape:window-x="0"
     inkscape:window-y="0"
     inkscape:window-maximized="1"
     inkscape:current-layer="svg2" /><g
     id="Background"><rect
       width="780"
       height="187"
       id="rect5"
       fill="#FFE4B5" /><path
       d="m 8,117.333 0,-20 C 8,97.333 7.050591,65.968419 43.948454,85.206186 61.092161,94.144553 117.69303,118.12142 161.98969,74.340206 161.98969,74.340206 184,31 251,31 c 67,0 205,53 249,47 0,0 16,1 30,-19 0,0 23,-32 60,-4 l 21,-14 c 0,0 5,-35 39,-38 34,-3 42,26 42,26 0,0 37.371,-9.3 64,14 24,21 20,60 20,60 l 0,84 -768,0 z"
       id="path7"
       inkscape:connector-curvature="0"
       style="fill:#efd3a3"
       sodipodi:nodetypes="ccscsccccscscccc" /><g
       id="g9"><circle
         cx="608"
         cy="57"
         r="20"
         id="circle11"
         fill="#A0C4DD" /><circle
         cx="661"
         cy="55"
         r="41"
         id="circle13"
         fill="#A0C4DD" /><path
         d="M766.527,117.172C757.877,137.638,737.616,152,714,152c-31.48,0-57-25.52-57-57s25.52-57,57-57    s57,25.52,57,57v18.688L766.527,117.172z"
         id="path15"
         fill="#A0C4DD" /></g><g
       id="g17"><g
         id="g19"><g
           id="g21"><circle
             cx="614.399"
             cy="61.949"
             r="18.116"
             id="circle23"
             fill="#FFEE9D" /></g><g
           id="g25"><circle
             cx="662.406"
             cy="60.138"
             r="37.138"
             id="circle27"
             fill="#FFEE9D" /></g><g
           id="g29"><circle
             cx="710.413"
             cy="96.37"
             r="51.63"
             id="circle31"
             fill="#FFEE9D" /></g></g></g><g
       id="g33"><g
         id="g35"><g
           id="g37"><circle
             cx="618.855"
             cy="69.275"
             r="15.942"
             id="circle39"
             fill="#FFD79D" /></g><g
           id="g41"><circle
             cx="661.101"
             cy="67.681"
             r="32.681"
             id="circle43"
             fill="#FFD79D" /></g><g
           id="g45"><circle
             cx="703.348"
             cy="99.565"
             r="45.435"
             id="circle47"
             fill="#FFD79D" /></g></g></g><g
       id="g49"><g
         id="g51"><g
           id="g53"><circle
             cx="626.579"
             cy="77.73"
             r="13.058"
             id="circle55"
             fill="#FFC49D" /></g><g
           id="g57"><circle
             cx="661.182"
             cy="76.424"
             r="26.768"
             id="circle59"
             fill="#FFC49D" /></g><g
           id="g61"><circle
             cx="695.785"
             cy="102.54"
             r="37.215"
             id="circle63"
             fill="#FFC49D" /></g></g></g><path
       d="M595,65l1,12l-11,6c12.807,9.021,60.345,12.538,99,28c75,30,87,22,87,22v45H8c0,0,0-51,0-74s39-5,39-5   c57,28,103,4,124-27s48-31,48-31c52-12,162,41,229,57s86-5,94-16c3.228-4.439,5.964-8.452,9.723-11.767   C551.723,70.233,568,55,595,65z"
       id="path65"
       fill="#A0C4DD" /><linearGradient
       id="SVGID_1_"
       gradientUnits="userSpaceOnUse"
       x1="389.5"
       y1="188"
       x2="389.5"
       y2="58.1915"><stop
         offset="0"
         style="stop-color:#CAE0F0"
         id="stop68" /><stop
         offset="0.1762"
         style="stop-color:#B4D2E6"
         id="stop70" /><stop
         offset="0.3563"
         style="stop-color:#A5C7DF"
         id="stop72" /><stop
         offset="0.5032"
         style="stop-color:#A0C4DD"
         id="stop74" /><stop
         offset="0.7718"
         style="stop-color:#B9D5E8"
         id="stop76" /><stop
         offset="1"
         style="stop-color:#CAE0F0"
         id="stop78" /></linearGradient><path
       d="M771,111c0,0-13,26-88-4s-78-39-103-37s-29,10-37,21s-23,37-91,24c-67.659-12.935-181-80-233-68   c0,0-27,3-48,34s-67,55-124,27c0,0-39-18-39,5s0,74,0,74h763V111z"
       id="path80"
       fill="url(#SVGID_1_)" /></g><g
     id="Marelle"><g
       id="g90"><path
         fill="none"
         stroke="#5D829A"
         stroke-width="1.7"
         stroke-linecap="round"
         stroke-linejoin="round"
         stroke-miterlimit="10"
         d="    M656.798,125.214c0.291,0.186,0.702,0.231,1.335,0.089c2.144-0.483,4.173-1.326,6.362-1.709c0.181-0.032,0.378-0.059,0.538,0.03    c0.175,0.097,0.252,0.303,0.316,0.492c0.879,2.59,1.757,5.18,2.636,7.769c0.094,0.278,0.184,0.604,0.023,0.849    c-0.125,0.19-0.361,0.268-0.579,0.332c-1.404,0.415-2.809,0.83-4.213,1.245c-1.198,0.354-2.412,0.711-3.661,0.742    c-0.29,0.007-0.607-0.013-0.824-0.206c-0.189-0.168-0.259-0.429-0.318-0.675c-0.365-1.524-0.654-3.067-0.867-4.62    c-0.119-0.866-0.758-3.094-0.292-3.877c0.503-0.845,2.928-0.883,3.849-1.092c1.385-0.314,2.762-0.658,4.132-1.032    c0.153-0.042,0.316-0.09,0.417-0.212c0.133-0.16,0.119-0.393,0.085-0.598c-0.264-1.593-1.274-2.967-1.68-4.53    c-0.252-0.971-0.264-1.987-0.424-2.977c-0.049-0.302-0.147-0.647-0.43-0.762c-0.221-0.09-0.47-0.002-0.692,0.083    c-1.438,0.549-2.919,0.983-4.425,1.298c-0.751,0.157-3.776,0.155-4.134,0.751c-0.703,1.169,1.452,5.42,1.861,6.578    C656.143,124.123,656.285,124.886,656.798,125.214z"
         id="path92" /><g
         id="g94"><path
           fill="#5D829A"
           d="M665.146,120.83c-0.049-0.115-0.064-0.362,0.078-0.486c0.111-0.122,0.226-0.186,0.337-0.288     c0.234-0.17,0.483-0.328,0.744-0.472c0.524-0.275,1.083-0.513,1.609-0.717c0.527-0.202,1.015-0.383,1.418-0.554l0.685-0.316     c0.163-0.067,0.365-0.145,0.632-0.171c0.266-0.031,0.607,0.011,0.889,0.162c0.583,0.34,0.71,0.821,0.797,1.128     c0.069,0.326,0.097,0.578,0.141,0.871c0.074,0.568,0.164,1.125,0.272,1.674c0.235,1.093,0.576,2.153,0.948,3.231l0.068,0.203     c0.02,0.071,0.048,0.112,0.069,0.281c0.032,0.143-0.038,0.49-0.231,0.671c-0.177,0.179-0.325,0.232-0.419,0.279l-0.722,0.376     c-0.489,0.253-1.007,0.484-1.544,0.699c-0.538,0.217-1.097,0.414-1.716,0.552c-0.619,0.126-1.312,0.24-2.206-0.078     c-0.46-0.194-0.878-0.559-1.069-0.886c-0.233-0.334-0.362-0.651-0.47-0.965c-0.2-0.625-0.234-1.227-0.236-1.816     C665.234,123.032,665.4,121.897,665.146,120.83z M665.339,120.779c0.246,1.087,0.655,2.156,1.174,3.134     c0.244,0.488,0.494,0.958,0.724,1.353c0.224,0.41,0.486,0.653,0.534,0.618c0.157,0.053,0.608,0.064,1.069,0.008     c0.469-0.055,0.975-0.166,1.488-0.29c0.514-0.128,1.032-0.283,1.58-0.41c0.263-0.063,0.577-0.131,0.845-0.165     c0.036,0.003,0.02,0.003-0.057,0.086c-0.089,0.085-0.119,0.288-0.095,0.294c0.015,0.03,0.013-0.063,0.013-0.129l0-0.206     c0.007-1.102-0.135-2.202-0.49-3.24c-0.187-0.516-0.42-1.016-0.697-1.497c-0.134-0.23-0.281-0.503-0.409-0.692     c-0.117-0.196-0.269-0.244-0.195-0.152c0.096,0.064,0.129,0.043-0.076,0.138c-0.158,0.085-0.515,0.266-0.83,0.354     c-0.642,0.197-1.253,0.181-1.818,0.142c-0.566-0.04-1.108-0.127-1.635-0.056c-0.267,0.022-0.519,0.104-0.761,0.214     c-0.11,0.064-0.24,0.135-0.326,0.207C665.297,120.563,665.304,120.638,665.339,120.779z"
           id="path96" /></g><g
         id="g98"><path
           fill="#5D829A"
           d="M700.175,112.822c0.538,1.192,1.362,2.266,2.055,3.439c0.696,1.169,1.09,2.472,1.211,3.816l0.019,0.212     c0.028,0.316-0.177,0.599-0.473,0.679c-1.271,0.345-2.575,0.491-3.809,0.805c-1.241,0.296-2.462,0.695-3.727,1.033     c-0.225,0.06-0.455-0.043-0.565-0.237l-0.108-0.191c-0.566-0.999-1.104-2.098-1.535-3.251c-0.222-0.579-0.417-1.174-0.564-1.821     c-0.117-0.654-0.241-1.343-0.008-2.23c0.017-0.101,0.082-0.231,0.13-0.346l0.082-0.175c0.03-0.057,0.043-0.1,0.141-0.227     c0.318-0.37,0.474-0.408,0.653-0.526c0.335-0.184,0.633-0.297,0.94-0.398c0.609-0.192,1.218-0.301,1.834-0.375l1.835-0.179     l0.903-0.098c0.15-0.017,0.3-0.036,0.454-0.044c0.077-0.006,0.154-0.011,0.235-0.008     C699.963,112.722,700.043,112.667,700.175,112.822z M699.995,112.909c0.016,0.015-0.209-0.009-0.325,0.023     c-0.141,0.028-0.282,0.059-0.423,0.101c-0.28,0.087-0.556,0.188-0.824,0.318c-0.539,0.246-1.055,0.559-1.559,0.872l-1.479,0.907     c-0.233,0.142-0.472,0.282-0.644,0.405c-0.07,0.04-0.168,0.165-0.037,0.026c0.046-0.072,0.035-0.045,0.036-0.033l-0.005,0.029     c-0.003,0.023-0.021,0.022-0.02,0.07c-0.046,0.271-0.027,0.789,0.055,1.296c0.061,0.519,0.196,1.066,0.328,1.616     c0.275,1.11,0.653,2.199,0.884,3.431l-0.673-0.428c1.244,0.056,2.513-0.01,3.714-0.358c1.208-0.329,2.301-1.004,3.352-1.651     l-0.453,0.891c-0.465-1.205-0.801-2.417-0.973-3.715C700.776,115.416,700.594,114.071,699.995,112.909z"
           id="path100" /></g><g
         id="g102"><g
           id="g104"><path
             fill="#5D829A"
             d="M686.594,119.944c0.052,0.142,0.103,0.219,0.218,0.195c0.115-0.028,0.271-0.086,0.404-0.138      c0.274-0.116,0.553-0.214,0.821-0.349c0.543-0.247,1.071-0.545,1.608-0.814c0.538-0.265,1.08-0.516,1.639-0.707      c0.279-0.099,0.564-0.176,0.849-0.255c0.271-0.087,0.631-0.146,0.712-0.178c0.09-0.026,0.171-0.046,0.254-0.212      c0.082-0.158,0.122-0.408,0.121-0.669c0.004-0.519-0.16-1.124-0.301-1.69c-0.315-1.132-0.808-2.215-1.48-3.153      c-0.817-0.471-4.572,0.981-5.167,1.501c-0.169,0.297-0.219,0.799-0.246,1.317c-0.01,0.523-0.021,1.09-0.01,1.671      C686.042,117.628,686.188,118.836,686.594,119.944z M686.434,120.001c-0.396-1.114-1.013-2.149-1.509-3.291      c-0.469-1.146-0.866-2.404-0.301-3.99c0.021-0.052,0.033-0.091,0.064-0.153c0.049-0.083,0.111-0.178,0.164-0.242      c0.102-0.119,0.202-0.211,0.289-0.279c0.178-0.141,0.339-0.24,0.495-0.327c0.312-0.174,0.61-0.307,0.915-0.413      c0.604-0.219,1.204-0.379,1.816-0.504c0.612-0.123,1.227-0.222,1.878-0.226c0.328,0,0.657,0.012,1.03,0.103      c0.187,0.051,0.395,0.102,0.642,0.294c0.11,0.061,0.274,0.335,0.263,0.354l0.083,0.216c0.425,1.157,0.749,2.302,1.179,3.411      c0.207,0.562,0.489,1.061,0.703,1.707c0.098,0.32,0.174,0.672,0.128,1.092c-0.035,0.411-0.311,0.928-0.746,1.184      c-0.446,0.241-0.675,0.293-0.964,0.39c-0.282,0.089-0.563,0.179-0.851,0.249c-0.573,0.144-1.164,0.23-1.76,0.301      c-0.596,0.067-1.201,0.105-1.791,0.194c-0.299,0.032-0.586,0.102-0.879,0.154c-0.152,0.024-0.273,0.074-0.45,0.096      c-0.086,0.011-0.207-0.014-0.276-0.092C686.487,120.154,686.459,120.072,686.434,120.001z"
             id="path106" /></g></g><g
         id="g108"><path
           fill="#5D829A"
           d="M690.813,119.298l-1.077,0.368c-0.357,0.128-0.722,0.233-1.073,0.38     c-0.702,0.298-1.419,0.548-2.104,0.899l0.276-0.483c0.76,1.896,1.718,3.679,2.818,5.323c0.121,0.205,0.288,0.488,0.275,0.407     c-0.003-0.022-0.083-0.149-0.29-0.245c-0.213-0.1-0.424-0.08-0.453-0.082c-0.096,0.005,0.301-0.144,0.497-0.232l0.708-0.3     c0.935-0.42,1.917-0.722,2.886-1.055c0.84-0.183,2.559-0.965,1.654-0.017c0.002-0.797-0.391-1.785-0.627-2.876     c-0.132-0.675-0.047-1.154-0.078-1.64c-0.012-0.482-0.111-0.9-0.501-0.983c-0.426-0.097-0.961-0.03-1.44,0.101     C691.791,118.986,691.31,119.153,690.813,119.298z M690.763,119.136c0.964-0.304,1.919-0.774,3.012-0.708     c0.279,0.028,0.552,0.219,0.691,0.458c0.148,0.238,0.215,0.5,0.27,0.755c0.109,0.509,0.128,1.034,0.28,1.491     c0.34,0.948,0.889,1.84,1.114,2.878c0.028,0.131,0.051,0.254,0.066,0.397c0.02,0.135-0.022,0.357-0.172,0.467     c-0.281,0.186-0.496,0.219-0.74,0.331l-1.429,0.565l-2.861,1.121c-0.491,0.178-0.928,0.375-1.464,0.539     c-0.287,0.096-0.68-0.067-0.826-0.317c-0.171-0.238-0.256-0.476-0.371-0.706c-0.867-1.867-1.539-3.823-2.003-5.826     c-0.014-0.057,0.021-0.115,0.076-0.133L690.763,119.136z"
           id="path110" /></g><g
         id="g112"><path
           fill="#5D829A"
           d="M685.178,115.496c-1.152-0.163-2.268,0.33-3.239,0.897c-0.497,0.276-0.985,0.558-1.504,0.785     c-0.471,0.211-1.251,0.505-1.181,0.439c0.014-0.03,0.009-0.119-0.017-0.135c-0.027-0.018-0.032,0.045-0.012,0.144     c0.04,0.189,0.211,0.554,0.279,0.869c0.159,0.644,0.199,1.255,0.257,1.84c0.064,0.584,0.152,1.152,0.325,1.681     c0.081,0.263,0.198,0.519,0.328,0.737c0.061,0.101,0.129,0.167,0.173,0.173c0.037,0.002,0.059-0.009,0.143-0.017l1.614-0.303     c0.556-0.104,1.105-0.192,1.635-0.31c0.528-0.119,1.039-0.267,1.469-0.453c0.422-0.178,0.772-0.44,0.754-0.488     c0,0,0.012-0.009,0.022-0.009c-0.01,0.004-0.008,0.033-0.002,0.02c-0.003-0.095,0.013-0.176,0.004-0.31     c-0.003-0.237-0.03-0.51-0.05-0.779c-0.042-0.543-0.053-1.113-0.081-1.686c-0.026-0.573-0.042-1.163-0.167-1.721     c-0.054-0.282-0.14-0.553-0.255-0.809C685.554,115.828,685.392,115.542,685.178,115.496z M685.202,115.298     c0.384,0.088,0.522,0.388,0.724,0.611l0.508,0.751c0.319,0.513,0.65,1.03,0.942,1.571c0.289,0.542,0.54,1.101,0.708,1.698     c0.085,0.3,0.151,0.6,0.198,0.94c0.029,0.155,0.041,0.363,0.047,0.558c-0.003,0.131-0.024,0.304-0.051,0.451     c-0.039,0.135-0.091,0.262-0.145,0.391c-0.099,0.275-0.277,0.438-0.434,0.644c-0.164,0.151-0.339,0.314-0.512,0.42     c-0.346,0.218-0.685,0.368-1.016,0.469c-0.659,0.209-1.287,0.308-1.904,0.36c-0.616,0.055-1.222,0.076-1.823,0.044     c-0.3-0.014-0.599-0.04-0.895-0.078c-0.313-0.043-0.54-0.053-0.964-0.136c-0.202-0.045-0.466-0.156-0.644-0.352     c-0.172-0.19-0.248-0.384-0.303-0.546c-0.088-0.318-0.158-0.613-0.211-0.914c-0.111-0.596-0.171-1.18-0.303-1.737     c-0.137-0.555-0.33-1.091-0.634-1.511c-0.148-0.225-0.299-0.346-0.531-0.668c-0.109-0.158-0.224-0.37-0.27-0.679     c-0.046-0.305,0.031-0.69,0.221-0.952c0.384-0.52,0.787-0.665,1.065-0.797c0.267-0.117,0.541-0.221,0.823-0.314     c0.562-0.189,1.165-0.298,1.78-0.352C682.823,115.081,684.043,115.189,685.202,115.298z"
           id="path114" /></g><g
         id="g116"><path
           fill="#5D829A"
           d="M672.569,122.191c0.125,0.308,0.342,0.519,0.629,0.428c0.272-0.073,0.548-0.281,0.838-0.46     c0.577-0.353,1.162-0.728,1.789-1.035c0.625-0.307,1.287-0.551,1.972-0.681c0.366-0.065,0.666-0.112,0.685-0.131     c0.008-0.007,0.051,0.046,0.117-0.133c0.141-0.333,0.079-1.025,0.039-1.682c-0.04-0.657-0.132-1.308-0.273-1.947     c-0.301-1.273-0.831-2.484-1.496-3.614l-0.031-0.053c0.004,0.014-0.031-0.069,0.006,0.025c0.032,0.072,0.093,0.144,0.161,0.187     c0.135,0.09,0.154,0.064,0.136,0.079c-0.009,0.008-0.089,0.022-0.146,0.038c-0.129,0.031-0.281,0.077-0.427,0.122l-0.905,0.3     l-1.834,0.611c-0.608,0.213-1.215,0.43-1.799,0.662l-0.842,0.352c-0.125,0.06-0.26,0.116-0.346,0.166     c-0.049,0.024-0.079,0.048-0.073,0.041c0.031-0.027-0.014,0.017,0.09-0.095c0.079-0.117,0.086-0.145,0.097-0.166     c0.032-0.14,0.003-0.06,0.008,0.013c0.005,0.09,0.014,0.208,0.035,0.337c0.042,0.259,0.118,0.55,0.195,0.849     c0.146,0.594,0.325,1.254,0.416,1.958C671.765,119.673,671.998,121.006,672.569,122.191z M672.389,122.278     c-0.561-1.193-1.328-2.304-2.034-3.483c-0.312-0.551-0.694-1.087-0.984-1.738c-0.146-0.321-0.275-0.658-0.381-1.04     c-0.053-0.192-0.101-0.399-0.125-0.637c-0.012-0.253-0.052-0.514,0.106-0.961c0.038-0.099,0.072-0.205,0.211-0.382     c0.149-0.183,0.179-0.181,0.27-0.263c0.138-0.105,0.247-0.171,0.344-0.224c0.201-0.112,0.368-0.19,0.544-0.263     c0.343-0.141,0.671-0.256,1.004-0.353c0.661-0.201,1.315-0.366,1.976-0.509c0.66-0.146,1.32-0.278,1.998-0.358     c0.339-0.041,0.68-0.072,1.035-0.08c0.18-0.005,0.354-0.01,0.554-0.001c0.106,0.006,0.192,0.007,0.347,0.032     c0.063,0.017,0.166,0.01,0.373,0.135c0.083,0.057,0.16,0.143,0.207,0.229c0.054,0.107,0.02,0.047,0.034,0.079l0.016,0.061     c0.331,1.31,0.671,2.591,1.102,3.849c0.226,0.626,0.469,1.25,0.728,1.876c0.223,0.622,0.593,1.227,0.527,2.215     c-0.031,0.466-0.346,1.159-0.942,1.446c-0.578,0.279-0.958,0.242-1.237,0.289c-0.617,0.069-1.247,0.099-1.889,0.154     c-0.641,0.053-1.301,0.116-1.935,0.281c-0.323,0.059-0.617,0.212-0.999,0.255c-0.186,0.017-0.407-0.024-0.554-0.163     C672.536,122.592,672.459,122.427,672.389,122.278z"
           id="path118" /></g><path
         fill="none"
         stroke="#5D829A"
         stroke-width="1.7"
         stroke-linecap="round"
         stroke-linejoin="round"
         stroke-miterlimit="10"
         d="    M674.499,130.345c0.061,0.132,0.126,0.267,0.236,0.363c0.267,0.234,0.676,0.147,1.017,0.048c1.274-0.372,2.548-0.744,3.821-1.117    c0.701-0.205,1.492-0.488,1.759-1.168c0.217-0.554,0.002-1.173-0.212-1.728c-0.52-1.348-1.041-2.696-1.561-4.044    c-0.165-0.429-0.385-0.91-0.826-1.038c-0.244-0.071-0.505-0.015-0.752,0.042c-1.182,0.27-2.365,0.54-3.547,0.81    c-1.273,0.29-1.926,0.103-2.003,1.386C672.312,125.881,673.714,128.579,674.499,130.345z"
         id="path120" /></g></g><g
     id="Perso1"><g
       id="g123"><path
         fill="none"
         stroke="#5D829A"
         stroke-width="0.75"
         stroke-linecap="round"
         stroke-miterlimit="10"
         d="M645.532,95.651    c0.453,1.636,0.811,3.3,1.07,4.978"
         id="path125" /><path
         fill="#5D829A"
         d="M639.613,113.108c4.622-0.16,9.244-0.321,13.867-0.481c-0.221,0.008-2.744-6.196-3.074-6.823    c-1.104-2.097-2.323-4.836-4.03-6.491c-1.627,1.369-2.689,4.676-3.621,6.619C641.624,108.287,640.576,110.681,639.613,113.108z"
         id="path127" /><path
         fill="#5D829A"
         d="M640.414,97.545c-0.041,0.121-0.062,0.265,0.013,0.368c0.059,0.082,0.163,0.116,0.26,0.146    c0.741,0.227,1.646,0.419,2.209-0.114c0.289-0.273,0.408-0.678,0.637-1.003c0.414-0.588,1.177-0.871,1.895-0.816    c0.717,0.055,1.386,0.409,1.932,0.878c0.479,0.411,0.882,0.916,1.419,1.248s1.28,0.452,1.774,0.06    c0.356-0.45-0.096-1.137-0.639-1.323c-0.543-0.186-1.146-0.095-1.7-0.246c-0.795-0.216-1.414-0.968-1.474-1.79    c-0.019-0.259,0.012-0.524-0.058-0.774c-0.094-0.335-0.361-0.597-0.655-0.783c-0.363-0.23-0.801-0.372-1.225-0.302    c-1.432,0.235-0.558,2.153-1.606,2.914C642.292,96.665,640.873,96.188,640.414,97.545z"
         id="path129" /><path
         fill="none"
         stroke="#5D829A"
         stroke-width="0.75"
         stroke-linecap="round"
         stroke-miterlimit="10"
         d="M644.471,112.626    c0.054,2.324,0.108,4.648,0.163,6.972c-1.532,0.06-3.065,0.121-4.597,0.181c-0.635,0.025-1.304,0.06-1.837,0.405    c-0.534,0.344-0.848,1.113-0.487,1.636"
         id="path131" /><path
         fill="none"
         stroke="#5D829A"
         stroke-width="0.75"
         stroke-linecap="round"
         stroke-miterlimit="10"
         d="M649.444,112.754    c0.257,3.646,0.956,7.26,2.077,10.739"
         id="path133" /></g></g><g
     id="Perso2"><g
       id="g136"><path
         fill="#5D829A"
         d="M679.786,100.72c2.205-0.176,4.41-0.351,6.615-0.527c0.239-0.019,0.549-0.113,0.543-0.352    c-0.002-0.092-0.058-0.174-0.111-0.25c-1.201-1.719-2.143-4.443-3.624-5.812c-0.742,0.774-1.074,2.484-1.558,3.52    C681.417,97.8,680.266,100.682,679.786,100.72z"
         id="path138" /><path
         fill="none"
         stroke="#5D829A"
         stroke-width="0.5"
         stroke-linecap="round"
         stroke-miterlimit="10"
         d="M682.087,100.377    c0.053,1.121,0.107,2.242,0.16,3.363c0.02,0.417,0.056,0.873,0.344,1.175c0.218,0.228,0.539,0.321,0.802,0.494    c0.862,0.568,0.911,1.791,0.868,2.822"
         id="path140" /><path
         fill="none"
         stroke="#5D829A"
         stroke-width="0.5"
         stroke-linecap="round"
         stroke-miterlimit="10"
         d="M684.487,100.379    c0.14,0.581,0.02,1.188-0.023,1.785c-0.043,0.596,0.015,1.254,0.425,1.688c0.275,0.291,0.67,0.44,0.96,0.716    c0.53,0.506,0.6,1.313,0.637,2.045"
         id="path142" /><path
         fill="#5D829A"
         d="M684.759,90.724c0.065,0.388-0.005,0.784-0.05,1.175c-0.049,0.429-0.05,0.91,0.235,1.235    c0.234,0.267,0.606,0.363,0.883,0.585c0.277,0.221,0.406,0.721,0.097,0.894c-0.299,0.167-0.626-0.143-0.884-0.369    c-0.58-0.507-1.441-0.668-2.166-0.406c-0.797,0.288-1.556,1.049-2.348,0.749c-0.214-0.515,0.4-1.026,0.956-1.06    c0.111-0.007,0.229-0.005,0.323-0.064c0.124-0.077,0.169-0.233,0.204-0.375c0.18-0.723,0.263-2.439,0.893-2.973    C683.583,89.539,684.606,89.776,684.759,90.724z"
         id="path144" /></g></g><g
     id="Perso3"><g
       id="g147"><path
         fill="#5D829A"
         d="M694.765,89.262c-2.198,2.951-4.076,6.141-5.591,9.494c4.574-1.201,9.438-0.166,14.13-0.76    c-1.454-1.745-2.694-3.667-3.686-5.71c-0.544-1.121-1.275-4.082-2.355-4.788C695.836,86.565,695.573,88.176,694.765,89.262z"
         id="path149" /><path
         fill="none"
         stroke="#5D829A"
         stroke-width="0.75"
         stroke-linecap="round"
         stroke-miterlimit="10"
         d="M693.025,109.499    c-0.317-1.936,0.635-3.82,1.205-5.697c0.558-1.84,0.756-3.766,0.951-5.679"
         id="path151" /><path
         fill="none"
         stroke="#5D829A"
         stroke-width="0.75"
         stroke-linecap="round"
         stroke-miterlimit="10"
         d="M696.025,109.499    c-0.317-1.936,0.635-3.82,1.205-5.697c0.558-1.84,0.756-3.766,0.951-5.679"
         id="path153" /><path
         fill="none"
         stroke="#5D829A"
         stroke-width="0.75"
         stroke-linecap="round"
         stroke-miterlimit="10"
         d="M696.418,88    c0.027-1.321-0.139-2.646-0.49-3.92"
         id="path155" /><path
         fill="#5D829A"
         d="M690.827,85.347c-0.259,0.603-0.074,1.367,0.433,1.783c0.173,0.142,0.382,0.247,0.605,0.266    c0.663,0.056,1.146-0.622,1.361-1.252s0.349-1.352,0.878-1.755c0.369-0.281,0.855-0.342,1.315-0.393    c0.768-0.085,1.608-0.155,2.253,0.272c0.687,0.455,0.982,1.374,1.709,1.763c0.283,0.152,0.611,0.208,0.932,0.197    c0.571-0.019,1.155-0.268,1.477-0.74c0.322-0.472,0.315-1.176-0.092-1.576c-0.466-0.458-1.212-0.393-1.864-0.348    c-0.652,0.044-1.44-0.04-1.737-0.621c-0.169-0.331-0.119-0.725-0.144-1.096c-0.059-0.907-0.659-1.788-1.525-2.064    c-0.866-0.276-1.934,0.166-2.251,1.018c-0.123,0.33-0.135,0.69-0.191,1.037c-0.13,0.799-0.564,1.818-1.248,2.306    C692.091,84.603,691.206,84.466,690.827,85.347z"
         id="path157" /></g></g></svg>